<svg width="25" height="24" viewBox="0 0 25 24" fill="none" xmlns="http://www.w3.org/2000/svg">
<g clip-path="url(#clip0_324_56)">
<path d="M19.4498 1.09995C19.5998 1.04995 19.7498 1.09995 19.8498 1.14995C20.0998 1.29995 20.2498 1.54995 20.2998 1.89995L20.7998 4.59995H21.6498L21.1498 1.74995C21.0498 1.14995 20.7498 0.699951 20.2998 0.399951C19.9498 0.199951 19.5498 0.149951 19.1998 0.249951L5.2998 4.54995L7.8998 4.59995L19.4498 1.09995Z" fill="#F04B36"/>
<path d="M22.9502 4.60005H21.7002H20.8502H7.9502L5.3002 4.55005C4.9502 4.65005 4.6002 4.90005 4.4002 5.30005C4.2502 5.55005 4.2002 5.80005 4.2002 6.10005V13C4.7502 12.85 5.3502 12.75 5.9502 12.75C9.4002 12.75 12.2002 15.4501 12.2002 18.7501C12.2002 19.3001 12.1502 19.8 12.0002 20.3H22.9502C23.6502 20.3 24.2502 19.6501 24.2502 18.8501V15.6H18.1502C17.9002 15.6 17.7502 15.4001 17.7502 15.2V9.85005C17.7502 9.60005 17.9502 9.45005 18.1502 9.45005H24.2502V6.10005C24.2502 5.30005 23.6502 4.60005 22.9502 4.60005Z" fill="#F7A93B"/>
<path d="M18.5498 14.75H24.2498V10.25H18.5498V14.75ZM21.1498 11.65C21.5498 11.65 21.8998 12.05 21.8998 12.5C21.8998 13 21.5498 13.35 21.1498 13.35C20.7498 13.35 20.3998 12.95 20.3998 12.5C20.3998 12.05 20.7498 11.65 21.1498 11.65Z" fill="#E77528"/>
<path d="M6 13.7C3.1 13.7 0.75 15.95 0.75 18.7C0.75 21.45 3.1 23.7 6 23.7C8.15 23.7 10.15 22.4 10.9 20.45C11.1 19.9 11.25 19.3 11.25 18.7C11.25 15.95 8.9 13.7 6 13.7ZM8 19.2H6.5V20.7C6.5 20.95 6.3 21.2 6 21.2C5.75 21.2 5.5 21 5.5 20.7V19.2H4C3.75 19.2 3.5 19 3.5 18.7C3.5 18.45 3.7 18.2 4 18.2H5.5V16.7C5.5 16.45 5.7 16.2 6 16.2C6.25 16.2 6.5 16.4 6.5 16.7V18.2H8C8.25 18.2 8.5 18.4 8.5 18.7C8.5 19 8.3 19.2 8 19.2Z" fill="#0DB89A"/>
</g>
<defs>
<clipPath id="clip0_324_56">
<rect width="24" height="24" fill="white" transform="translate(0.5)"/>
</clipPath>
</defs>
</svg>
