<svg width="24" height="24" viewBox="0 0 24 24" fill="none" xmlns="http://www.w3.org/2000/svg">
<path fill-rule="evenodd" clip-rule="evenodd" d="M12.6373 16.4699L7.18119 21.9589C7.08121 21.7589 7.19985 21.5001 7.18119 21.2651L9.09985 15.8001C11.5024 15.8001 12.2505 15.347 12.6373 16.4699Z" fill="#46A350"/>
<path d="M21.8186 7.01619C22.27 6.22273 21.5093 5.28911 20.6411 5.57051L3.07953 11.2614C2.23445 11.5352 2.13935 12.6928 2.92841 13.1009L13.9973 18.8257C14.4742 19.0723 15.0606 18.8985 15.326 18.4319L21.8186 7.01619Z" fill="#099718"/>
<path d="M13.9948 12.0338C14.3082 11.5866 13.8236 10.9639 13.3001 11.2L6.81987 14.1684C6.46431 14.3312 6.23633 14.6864 6.23633 15.0775L6.90897 21.7908C6.93037 22.0044 7.22735 22.0388 7.29711 21.8358L9.01777 16.8303C9.13701 16.4834 9.34807 16.1772 9.62921 15.9416C10.7327 15.0168 13.6095 12.5838 13.9948 12.0338Z" fill="#005513"/>
<path d="M6.2002 7.8C6.2002 11.0033 8.79694 13.6 12.0002 13.6C15.2035 13.6 17.8002 11.0033 17.8002 7.8C17.8002 4.59674 15.2035 2 12.0002 2C8.79694 2 6.2002 4.59674 6.2002 7.8Z" fill="#FFBA33"/>
<path fill-rule="evenodd" clip-rule="evenodd" d="M12.4004 5.0001C12.4004 4.77918 12.2213 4.6001 12.0004 4.6001C11.7795 4.6001 11.6004 4.77918 11.6004 5.0001V5.4001H10.8248C10.3713 5.4001 10.0035 5.57876 9.75429 5.86616C9.51207 6.14548 9.40039 6.505 9.40039 6.8501C9.40039 7.1952 9.51207 7.55472 9.75429 7.83404C10.0035 8.12144 10.3713 8.3001 10.8248 8.3001H11.6004V9.6001H10.0952C9.87427 9.6001 9.69519 9.77918 9.69519 10.0001C9.69519 10.221 9.87427 10.4001 10.0952 10.4001H11.6004V10.8001C11.6004 11.021 11.7795 11.2001 12.0004 11.2001C12.2213 11.2001 12.4004 11.021 12.4004 10.8001V10.4001H13.176C13.6295 10.4001 13.9973 10.2214 14.2465 9.93404C14.4887 9.65472 14.6004 9.2952 14.6004 8.9501C14.6004 8.605 14.4887 8.24548 14.2465 7.96616C13.9973 7.67876 13.6295 7.5001 13.176 7.5001H12.4004V6.2001H13.7614C13.9823 6.2001 14.1614 6.02102 14.1614 5.8001C14.1614 5.57918 13.9823 5.4001 13.7614 5.4001H12.4004V5.0001ZM11.6004 6.2001H10.8248C10.5954 6.2001 10.4509 6.28394 10.3587 6.3903C10.2595 6.50472 10.2004 6.6702 10.2004 6.8501C10.2004 7.03 10.2595 7.19548 10.3587 7.3099C10.4509 7.41626 10.5954 7.5001 10.8248 7.5001H11.6004V6.2001ZM12.4004 8.3001V9.6001H13.176C13.4054 9.6001 13.5499 9.51626 13.6421 9.4099C13.7413 9.29548 13.8004 9.13 13.8004 8.9501C13.8004 8.7702 13.7413 8.60472 13.6421 8.4903C13.5499 8.38394 13.4054 8.3001 13.176 8.3001H12.4004Z" fill="white"/>
</svg>
