<svg width="25" height="25" viewBox="0 0 25 25" fill="none" xmlns="http://www.w3.org/2000/svg">
<path d="M22.3112 21.6556H7.29802C7.01424 21.6556 6.78418 21.4255 6.78418 21.1418V14.0588C6.78418 13.775 7.01424 13.5449 7.29802 13.5449H22.3112C22.595 13.5449 22.8251 13.775 22.8251 14.0588V21.1418C22.8251 21.4255 22.595 21.6556 22.3112 21.6556Z" fill="#5A7A39"/>
<path d="M21.4548 20.7992H6.44158C6.1578 20.7992 5.92773 20.5691 5.92773 20.2853V13.2023C5.92773 12.9185 6.1578 12.6885 6.44158 12.6885H21.4548C21.7386 12.6885 21.9686 12.9185 21.9686 13.2023V20.2853C21.9686 20.5691 21.7386 20.7992 21.4548 20.7992Z" fill="#648940"/>
<path d="M20.5983 19.9427H5.58513C5.30135 19.9427 5.07129 19.7127 5.07129 19.4289V12.3459C5.07129 12.0621 5.30135 11.832 5.58513 11.832H20.5983C20.882 11.832 21.1121 12.0621 21.1121 12.3459V19.4289C21.1122 19.7127 20.8821 19.9427 20.5983 19.9427Z" fill="#76A34F"/>
<path d="M20.4085 17.1848V14.5897C20.4085 14.5002 20.3395 14.4272 20.2503 14.4194C19.3535 14.3417 18.6389 13.6088 18.5645 12.6897C18.5573 12.6004 18.4839 12.531 18.3942 12.531H7.78961C7.69989 12.531 7.62658 12.6004 7.61936 12.6897C7.54492 13.6088 6.83036 14.3416 5.93355 14.4194C5.84448 14.4271 5.77539 14.5002 5.77539 14.5897V17.1848C5.77539 17.2742 5.84439 17.3472 5.93355 17.355C6.83036 17.4327 7.54492 18.1657 7.61936 19.0847C7.62658 19.174 7.69998 19.2434 7.78961 19.2434H18.3943C18.484 19.2434 18.5574 19.174 18.5646 19.0847C18.639 18.1657 19.3536 17.4328 20.2504 17.355C20.3395 17.3473 20.4085 17.2742 20.4085 17.1848Z" fill="#91B56B"/>
<path d="M13.0918 18.5339C14.5534 18.5339 15.7382 17.349 15.7382 15.8874C15.7382 14.4258 14.5534 13.241 13.0918 13.241C11.6302 13.241 10.4453 14.4258 10.4453 15.8874C10.4453 17.349 11.6302 18.5339 13.0918 18.5339Z" fill="white"/>
<path d="M13.3533 17.5154H12.8296C12.3651 17.5154 11.9873 17.1376 11.9873 16.6731C11.9873 16.5696 12.0713 16.4856 12.1748 16.4856C12.2783 16.4856 12.3623 16.5696 12.3623 16.6731C12.3623 16.9307 12.5719 17.1404 12.8296 17.1404H13.3533C13.611 17.1404 13.8206 16.9307 13.8206 16.6731V16.4112C13.8206 16.1536 13.611 15.944 13.3533 15.944H12.8296C12.3651 15.944 11.9873 15.5662 11.9873 15.1018C11.9873 14.6373 12.3651 14.2595 12.8296 14.2595H13.3533C13.8178 14.2595 14.1956 14.6373 14.1956 15.1018C14.1956 15.2053 14.1116 15.2893 14.0081 15.2893C13.9046 15.2893 13.8206 15.2053 13.8206 15.1018C13.8206 14.8441 13.611 14.6345 13.3533 14.6345H12.8296C12.5719 14.6345 12.3623 14.8441 12.3623 15.1018C12.3623 15.3594 12.5719 15.569 12.8296 15.569H13.3533C13.8178 15.569 14.1956 15.9468 14.1956 16.4112V16.6731C14.1957 17.1376 13.8178 17.5154 13.3533 17.5154Z" fill="#648940"/>
<path d="M13.0918 17.7772C12.9883 17.7772 12.9043 17.6932 12.9043 17.5897V14.1851C12.9043 14.0816 12.9883 13.9976 13.0918 13.9976C13.1953 13.9976 13.2793 14.0816 13.2793 14.1851V17.5897C13.2793 17.6933 13.1954 17.7772 13.0918 17.7772Z" fill="#648940"/>
<path d="M6.77873 14.6268C9.32195 14.6268 11.3836 12.5651 11.3836 10.0219C11.3836 7.47868 9.32195 5.41699 6.77873 5.41699C4.23551 5.41699 2.17383 7.47868 2.17383 10.0219C2.17383 12.5651 4.23551 14.6268 6.77873 14.6268Z" fill="#FFA91A"/>
<path d="M2.85938 10.2097C2.75616 10.2097 2.67188 10.1254 2.67188 10.0222C2.67188 9.91903 2.75616 9.83466 2.85938 9.83466C2.9625 9.83466 3.04688 9.91903 3.04688 10.0222C3.04688 10.1254 2.9625 10.2097 2.85938 10.2097ZM2.93063 9.46444C2.91938 9.46444 2.90719 9.46341 2.895 9.46069C2.84531 9.45122 2.80313 9.42319 2.775 9.38194C2.74688 9.34069 2.73656 9.29006 2.74594 9.24131C2.93437 8.27006 3.46969 7.39716 4.25531 6.78403C4.46156 6.62278 4.68469 6.48038 4.91625 6.36216C5.00625 6.31631 5.1225 6.35372 5.16844 6.44372C5.19187 6.48788 5.19562 6.53944 5.17969 6.58716C5.16469 6.63403 5.13188 6.67341 5.08687 6.69591C4.87594 6.80372 4.67344 6.93309 4.48594 7.07934C3.77259 7.63716 3.285 8.42934 3.11437 9.31059V9.31256C3.0975 9.40059 3.02063 9.46444 2.93063 9.46444Z" fill="#FFC91D"/>
<path d="M9.41299 6.24561C9.93462 6.99214 10.2416 7.89973 10.2416 8.87942C10.2416 11.4227 8.1799 13.4842 5.63674 13.4842C4.65696 13.4842 3.74937 13.1773 3.00293 12.6557C3.83534 13.8469 5.2158 14.6267 6.77927 14.6267C9.32243 14.6267 11.3841 12.565 11.3841 10.0219C11.384 8.45848 10.6042 7.07801 9.41299 6.24561Z" fill="#F79219"/>
<path d="M9.73619 6.49316C10.4075 7.29332 10.8123 8.32457 10.8123 9.4507C10.8123 11.9939 8.75069 14.0555 6.20753 14.0555C5.08141 14.0555 4.05016 13.6507 3.25 12.9794C4.09469 13.9861 5.36172 14.6267 6.77875 14.6267C9.32191 14.6267 11.3836 12.5651 11.3836 10.0219C11.3836 8.60488 10.743 7.33785 9.73619 6.49316Z" fill="#EF7816"/>
<path d="M7.19749 12.6238H6.35927C5.67809 12.6238 5.12402 12.0698 5.12402 11.3886C5.12402 11.2851 5.20802 11.2011 5.31152 11.2011C5.41502 11.2011 5.49902 11.2851 5.49902 11.3886C5.49902 11.863 5.8849 12.2488 6.35927 12.2488H7.19749C7.67187 12.2488 8.05774 11.863 8.05774 11.3886V10.9694C8.05774 10.495 7.67187 10.1092 7.19749 10.1092H6.35927C5.67809 10.1092 5.12402 9.55511 5.12402 8.87392C5.12402 8.19273 5.67809 7.63867 6.35927 7.63867H7.19749C7.87868 7.63867 8.43274 8.19273 8.43274 8.87392C8.43274 8.97742 8.34874 9.06142 8.24524 9.06142C8.14174 9.06142 8.05774 8.97742 8.05774 8.87392C8.05774 8.39955 7.67187 8.01367 7.19749 8.01367H6.35927C5.8849 8.01367 5.49902 8.39955 5.49902 8.87392C5.49902 9.3483 5.8849 9.73417 6.35927 9.73417H7.19749C7.87868 9.73417 8.43274 10.2882 8.43274 10.9694V11.3886C8.43274 12.0698 7.87868 12.6238 7.19749 12.6238Z" fill="white"/>
<path d="M6.77832 13.0429C6.67482 13.0429 6.59082 12.9589 6.59082 12.8554V7.40723C6.59082 7.30373 6.67482 7.21973 6.77832 7.21973C6.88182 7.21973 6.96582 7.30373 6.96582 7.40723V12.8554C6.96582 12.959 6.88182 13.0429 6.77832 13.0429Z" fill="white"/>
<path d="M16.5216 10.5732C18.5177 10.5732 20.1359 8.95497 20.1359 6.95883C20.1359 4.96268 18.5177 3.34448 16.5216 3.34448C14.5254 3.34448 12.9072 4.96268 12.9072 6.95883C12.9072 8.95497 14.5254 10.5732 16.5216 10.5732Z" fill="#76A34F"/>
<path d="M19.0771 4.40312C18.9675 4.29343 18.8519 4.19321 18.7323 4.10059C19.8316 5.51837 19.7315 7.56549 18.4298 8.8673C17.128 10.1691 15.0809 10.2692 13.6631 9.16984C13.7558 9.28937 13.8559 9.40496 13.9656 9.51465C15.3771 10.9261 17.6656 10.9261 19.0771 9.51465C20.4886 8.10315 20.4886 5.81462 19.0771 4.40312Z" fill="#648940"/>
<path d="M16.1299 8.87421C15.9677 8.87421 15.8057 8.81233 15.6819 8.68868L14.4345 7.44124C14.1872 7.19383 14.1872 6.79277 14.4345 6.54536C14.6819 6.29805 15.083 6.29805 15.3304 6.54536L16.1299 7.34496L17.7165 5.75824C17.9639 5.51093 18.365 5.51093 18.6124 5.75824C18.8597 6.00564 18.8597 6.40671 18.6124 6.65411L16.5778 8.68868C16.4541 8.81233 16.292 8.87421 16.1299 8.87421Z" fill="#FFC91D"/>
<path d="M15.8708 7.08616L15.3303 6.5455L15.3301 6.54541L15.8708 7.08616Z" fill="#377DE2"/>
<path d="M18.6123 5.75848C18.5669 5.7132 18.5154 5.67908 18.4616 5.65039C18.5895 5.89002 18.5553 6.19339 18.3533 6.39542L16.3187 8.42998C16.195 8.55364 16.033 8.61552 15.8708 8.61552C15.7086 8.61552 15.5466 8.55364 15.4229 8.42998L15.6818 8.68892C15.8055 8.81258 15.9675 8.87445 16.1297 8.87445C16.2919 8.87445 16.4539 8.81258 16.5777 8.68892L18.6122 6.65436C18.8597 6.40686 18.8597 6.00589 18.6123 5.75848Z" fill="#FFA91A"/>
</svg>
