<svg width="20" height="20" viewBox="0 0 20 20" fill="none" xmlns="http://www.w3.org/2000/svg">
<g clip-path="url(#clip0_324_259)">
<path d="M8.33301 6.66659V4.99992C8.33301 4.55789 8.5086 4.13397 8.82116 3.82141C9.13372 3.50885 9.55765 3.33325 9.99967 3.33325H15.833C16.275 3.33325 16.699 3.50885 17.0115 3.82141C17.3241 4.13397 17.4997 4.55789 17.4997 4.99992V14.9999C17.4997 15.4419 17.3241 15.8659 17.0115 16.1784C16.699 16.491 16.275 16.6666 15.833 16.6666H9.99967C9.55765 16.6666 9.13372 16.491 8.82116 16.1784C8.5086 15.8659 8.33301 15.4419 8.33301 14.9999V13.3333" stroke="#666768" stroke-width="1.5" stroke-linecap="round" stroke-linejoin="round"/>
<path d="M12.5 10H2.5L5 7.5" stroke="#666768" stroke-width="1.5" stroke-linecap="round" stroke-linejoin="round"/>
<path d="M5 12.5L2.5 10" stroke="#666768" stroke-width="1.5" stroke-linecap="round" stroke-linejoin="round"/>
</g>
<defs>
<clipPath id="clip0_324_259">
<rect width="20" height="20" fill="white"/>
</clipPath>
</defs>
</svg>
