<svg width="24" height="25" viewBox="0 0 24 25" fill="none" xmlns="http://www.w3.org/2000/svg">
<g clip-path="url(#clip0_324_142)">
<path d="M21.1537 22.5058H2.84587C1.87012 22.5058 1.0791 21.7147 1.0791 20.739V5.4943C1.0791 4.51855 1.87012 3.72754 2.84587 3.72754H21.1537C22.1295 3.72754 22.9205 4.51855 22.9205 5.4943V20.739C22.9205 21.7147 22.1295 22.5058 21.1537 22.5058Z" fill="url(#paint0_linear_324_142)"/>
<path d="M20.7457 22.087H3.25442C2.32217 22.087 1.56641 21.3312 1.56641 20.399V5.83426C1.56641 4.90201 2.32213 4.14624 3.25442 4.14624H20.7457C21.6779 4.14624 22.4337 4.90196 22.4337 5.83426V20.399C22.4338 21.3313 21.678 22.087 20.7457 22.087Z" fill="url(#paint1_linear_324_142)"/>
<path d="M21.7371 8.65862L17.3334 1.03131C17.0401 0.523231 16.3904 0.349137 15.8823 0.642528L1.99805 8.65862H21.7371Z" fill="url(#paint2_linear_324_142)"/>
<path d="M1.0791 14.7972H22.9205V9.01225C22.9205 8.28208 22.3286 7.69019 21.5984 7.69019H2.40116C1.67099 7.69019 1.0791 8.28208 1.0791 9.01225V14.7972Z" fill="url(#paint3_linear_324_142)"/>
<path d="M1.0791 12.6215V20.7389C1.0791 21.7146 1.87012 22.5057 2.84591 22.5057H21.1537C22.1295 22.5057 22.9205 21.7147 22.9205 20.7389V12.6215C22.9205 12.0189 22.4319 11.5303 21.8293 11.5303H2.17035C1.56768 11.5303 1.0791 12.0188 1.0791 12.6215Z" fill="url(#paint4_linear_324_142)"/>
<path d="M19.626 8.43481V22.5058H21.1543C22.1301 22.5058 22.9211 21.7148 22.9211 20.739V11.7299L19.626 8.43481Z" fill="url(#paint5_linear_324_142)"/>
<path d="M18.1356 24.4867L2.8034 22.706C1.82052 22.5918 1.0791 21.7594 1.0791 20.7699V5.36255C1.0791 5.69367 1.32721 5.97221 1.65604 6.01041L18.5853 7.97663C19.5681 8.09081 20.3096 8.92327 20.3096 9.91275V22.5506C20.3096 23.7162 19.2934 24.6212 18.1356 24.4867Z" fill="url(#paint6_linear_324_142)"/>
<path d="M18.1356 21.4092L2.8034 19.6285C1.82052 19.5143 1.0791 18.6819 1.0791 17.6924V20.7699C1.0791 21.7594 1.82052 22.5919 2.8034 22.706L18.1356 24.4867C19.2934 24.6212 20.3096 23.7162 20.3096 22.5506V19.4731C20.3096 20.6387 19.2934 21.5436 18.1356 21.4092Z" fill="url(#paint7_linear_324_142)"/>
<path d="M2.45345 7.76401C2.4406 7.76401 2.42757 7.76326 2.41449 7.76185L1.71287 7.6847C1.51909 7.66337 1.37926 7.48909 1.40059 7.29535C1.42191 7.10162 1.59634 6.96193 1.78993 6.98307L2.49156 7.06023C2.68534 7.08156 2.82516 7.25584 2.80384 7.44957C2.78396 7.63028 2.63106 7.76401 2.45345 7.76401Z" fill="url(#paint8_linear_324_142)"/>
<path d="M16.8709 23.3238C16.8561 23.3238 16.841 23.3229 16.8259 23.321L15.4623 23.1476C15.269 23.123 15.1321 22.9463 15.1567 22.7529C15.1813 22.5596 15.358 22.4235 15.5514 22.4473L16.915 22.6207C17.1084 22.6453 17.2453 22.822 17.2206 23.0154C17.1979 23.1936 17.046 23.3238 16.8709 23.3238ZM18.2131 23.1491C18.0808 23.1491 17.9538 23.0743 17.8936 22.9465C17.8105 22.7702 17.8861 22.5599 18.0625 22.4769C18.4206 22.3081 18.6899 22.0283 18.8014 21.7089C18.8656 21.525 19.067 21.428 19.251 21.4921C19.4349 21.5564 19.5321 21.7577 19.4678 21.9417C19.2917 22.446 18.8995 22.8628 18.3633 23.1154C18.3147 23.1383 18.2636 23.1491 18.2131 23.1491ZM14.1437 22.9771C14.1289 22.9771 14.1138 22.9761 14.0987 22.9742L12.7351 22.8008C12.5417 22.7762 12.4048 22.5995 12.4295 22.4061C12.4541 22.2128 12.6308 22.0767 12.8242 22.1005L14.1878 22.2739C14.3811 22.2985 14.518 22.4752 14.4934 22.6686C14.4706 22.8468 14.3187 22.9771 14.1437 22.9771ZM11.4165 22.6302C11.4016 22.6302 11.3866 22.6292 11.3715 22.6274L10.0078 22.454C9.81451 22.4294 9.67759 22.2527 9.70224 22.0593C9.72685 21.866 9.90357 21.7292 10.0969 21.7537L11.4606 21.9271C11.6539 21.9517 11.7908 22.1284 11.7661 22.3218C11.7434 22.5 11.5914 22.6302 11.4165 22.6302ZM8.68913 22.2834C8.67432 22.2834 8.65927 22.2824 8.64413 22.2805L7.28045 22.1071C7.08709 22.0825 6.95021 21.9058 6.97487 21.7124C6.99948 21.5191 7.17624 21.3829 7.36955 21.4068L8.73324 21.5803C8.9266 21.6049 9.06348 21.7816 9.03882 21.975C9.01618 22.1532 8.86421 22.2834 8.68913 22.2834ZM5.9619 21.9366C5.94709 21.9366 5.93204 21.9356 5.9169 21.9337L4.55321 21.7603C4.35985 21.7357 4.22298 21.559 4.24763 21.3656C4.27224 21.1722 4.44901 21.0361 4.64232 21.06L6.00601 21.2334C6.19937 21.2581 6.33624 21.4347 6.31159 21.6281C6.2889 21.8064 6.13698 21.9366 5.9619 21.9366ZM19.2138 20.8127C19.0188 20.8127 18.8609 20.6548 18.8609 20.4598V19.0852C18.8609 18.8903 19.0188 18.7323 19.2138 18.7323C19.4087 18.7323 19.5667 18.8903 19.5667 19.0852V20.4598C19.5668 20.6548 19.4088 20.8127 19.2138 20.8127ZM19.2138 18.0636C19.0188 18.0636 18.8609 17.9056 18.8609 17.7107V16.336C18.8609 16.1411 19.0188 15.9831 19.2138 15.9831C19.4087 15.9831 19.5667 16.1411 19.5667 16.336V17.7107C19.5668 17.9056 19.4088 18.0636 19.2138 18.0636ZM19.2138 15.3144C19.0188 15.3144 18.8609 15.1564 18.8609 14.9614V13.5868C18.8609 13.3919 19.0188 13.2339 19.2138 13.2339C19.4087 13.2339 19.5667 13.3919 19.5667 13.5868V14.9614C19.5668 15.1563 19.4088 15.3144 19.2138 15.3144ZM19.2138 12.5651C19.0188 12.5651 18.8609 12.4072 18.8609 12.2122V10.8376C18.8609 10.6427 19.0188 10.4847 19.2138 10.4847C19.4087 10.4847 19.5667 10.6427 19.5667 10.8376V12.2122C19.5668 12.4071 19.4088 12.5651 19.2138 12.5651ZM18.7202 9.95678C18.6331 9.95678 18.5457 9.92467 18.4775 9.86003C18.2159 9.61215 17.8529 9.45423 17.4551 9.41528L17.4458 9.41429C17.252 9.39343 17.1118 9.21939 17.1327 9.02561C17.1535 8.83178 17.3275 8.69153 17.5214 8.71248L17.5274 8.71314C18.0771 8.767 18.5881 8.99247 18.9631 9.34764C19.1046 9.4817 19.1106 9.70511 18.9765 9.84662C18.907 9.91979 18.8137 9.95678 18.7202 9.95678ZM16.1176 9.26612C16.1047 9.26612 16.0917 9.26537 16.0786 9.26397L14.7122 9.11373C14.5185 9.0924 14.3786 8.91812 14.4 8.72439C14.4213 8.53065 14.5957 8.3912 14.7893 8.41211L16.1557 8.56234C16.3494 8.58367 16.4893 8.75795 16.4679 8.95168C16.4481 9.13234 16.2952 9.26612 16.1176 9.26612ZM13.3849 8.96565C13.372 8.96565 13.359 8.9649 13.3459 8.9635L11.9795 8.81326C11.7858 8.79194 11.6459 8.61765 11.6672 8.42392C11.6885 8.23014 11.8632 8.09054 12.0566 8.11164L13.423 8.26187C13.6167 8.2832 13.7566 8.45748 13.7353 8.65122C13.7154 8.83192 13.5625 8.96565 13.3849 8.96565ZM10.6521 8.66523C10.6392 8.66523 10.6262 8.66448 10.6131 8.66308L9.24676 8.51284C9.05302 8.49151 8.91315 8.31723 8.93448 8.1235C8.95576 7.92976 9.13009 7.79017 9.32382 7.81122L10.6902 7.96145C10.8839 7.98278 11.0238 8.15706 11.0025 8.35079C10.9826 8.53145 10.8297 8.66523 10.6521 8.66523ZM7.91931 8.36481C7.90646 8.36481 7.89343 8.36406 7.88035 8.36265L6.51399 8.21242C6.32021 8.19109 6.18038 8.01681 6.20171 7.82308C6.22299 7.62939 6.39713 7.48984 6.59105 7.51079L7.95741 7.66103C8.15115 7.68236 8.29102 7.85664 8.2697 8.05037C8.24991 8.23103 8.09696 8.36481 7.91931 8.36481ZM5.18654 8.06434C5.1737 8.06434 5.16066 8.06359 5.14759 8.06218L3.78123 7.91195C3.58749 7.89062 3.44762 7.71634 3.46895 7.52261C3.49027 7.32892 3.66446 7.18942 3.85829 7.21033L5.22465 7.36056C5.41843 7.38189 5.55826 7.55617 5.53693 7.7499C5.5171 7.93056 5.36415 8.06434 5.18654 8.06434Z" fill="url(#paint9_linear_324_142)"/>
<path d="M3.23145 21.5894C3.21664 21.5894 3.20164 21.5885 3.1865 21.5866L2.48623 21.4975C2.29287 21.473 2.15595 21.2963 2.1806 21.1029C2.20517 20.9095 2.38189 20.7728 2.57525 20.7973L3.27551 20.8863C3.46887 20.9109 3.60579 21.0876 3.58114 21.2809C3.55845 21.4592 3.40648 21.5894 3.23145 21.5894Z" fill="url(#paint10_linear_324_142)"/>
<path d="M16.1983 3.12811L13.9395 4.35726C13.6453 4.51734 13.277 4.40864 13.1168 4.1144C12.9568 3.82017 13.0655 3.45187 13.3597 3.29175L15.6186 2.06264C15.9128 1.90256 16.2811 2.01126 16.4412 2.3055C16.6013 2.59969 16.4926 2.96803 16.1983 3.12811Z" fill="#61DB99"/>
<path d="M20.3099 17.5542L18.0683 15.3126C17.752 14.9682 17.2981 14.7522 16.7937 14.7522C15.8381 14.7522 15.0635 15.5269 15.0635 16.4824C15.0635 16.9869 15.2795 17.4408 15.6239 17.757L20.3099 22.443V17.5542H20.3099Z" fill="url(#paint11_linear_324_142)"/>
<path d="M16.7937 18.2125C17.7493 18.2125 18.524 17.4378 18.524 16.4822C18.524 15.5266 17.7493 14.752 16.7937 14.752C15.8381 14.752 15.0635 15.5266 15.0635 16.4822C15.0635 17.4378 15.8381 18.2125 16.7937 18.2125Z" fill="url(#paint12_linear_324_142)"/>
<path d="M16.7937 17.6763C17.4532 17.6763 17.9878 17.1417 17.9878 16.4822C17.9878 15.8227 17.4532 15.2881 16.7937 15.2881C16.1342 15.2881 15.5996 15.8227 15.5996 16.4822C15.5996 17.1417 16.1342 17.6763 16.7937 17.6763Z" fill="url(#paint13_linear_324_142)"/>
<path d="M16.3399 16.2757C16.4763 16.2757 16.5869 16.165 16.5869 16.0286C16.5869 15.8921 16.4763 15.7815 16.3399 15.7815C16.2034 15.7815 16.0928 15.8921 16.0928 16.0286C16.0928 16.165 16.2034 16.2757 16.3399 16.2757Z" fill="url(#paint14_linear_324_142)"/>
<path d="M17.2471 16.2757C17.3835 16.2757 17.4942 16.165 17.4942 16.0286C17.4942 15.8921 17.3835 15.7815 17.2471 15.7815C17.1106 15.7815 17 15.8921 17 16.0286C17 16.165 17.1106 16.2757 17.2471 16.2757Z" fill="url(#paint15_linear_324_142)"/>
<path d="M16.3399 17.1834C16.4763 17.1834 16.5869 17.0727 16.5869 16.9363C16.5869 16.7998 16.4763 16.6892 16.3399 16.6892C16.2034 16.6892 16.0928 16.7998 16.0928 16.9363C16.0928 17.0727 16.2034 17.1834 16.3399 17.1834Z" fill="url(#paint16_linear_324_142)"/>
<path d="M17.2471 17.1834C17.3835 17.1834 17.4942 17.0727 17.4942 16.9363C17.4942 16.7998 17.3835 16.6892 17.2471 16.6892C17.1106 16.6892 17 16.7998 17 16.9363C17 17.0727 17.1106 17.1834 17.2471 17.1834Z" fill="url(#paint17_linear_324_142)"/>
</g>
<defs>
<linearGradient id="paint0_linear_324_142" x1="12.3567" y1="2.64516" x2="12.2292" y2="6.38419" gradientUnits="userSpaceOnUse">
<stop stop-color="#FFB92D"/>
<stop offset="1" stop-color="#F59500"/>
</linearGradient>
<linearGradient id="paint1_linear_324_142" x1="12.9684" y1="5.12778" x2="12.6211" y2="7.99219" gradientUnits="userSpaceOnUse">
<stop stop-color="#FFB92D"/>
<stop offset="1" stop-color="#F59500"/>
</linearGradient>
<linearGradient id="paint2_linear_324_142" x1="11.8673" y1="5.21242" x2="11.8673" y2="7.39449" gradientUnits="userSpaceOnUse">
<stop stop-color="#A7F3CE"/>
<stop offset="1" stop-color="#61DB99"/>
</linearGradient>
<linearGradient id="paint3_linear_324_142" x1="11.9996" y1="8.98966" x2="11.9996" y2="15.1128" gradientUnits="userSpaceOnUse">
<stop stop-color="#FF4C54"/>
<stop offset="1" stop-color="#BE3F45"/>
</linearGradient>
<linearGradient id="paint4_linear_324_142" x1="11.9996" y1="13.5364" x2="11.9996" y2="22.9931" gradientUnits="userSpaceOnUse">
<stop stop-color="#FF4C54"/>
<stop offset="1" stop-color="#BE3F45"/>
</linearGradient>
<linearGradient id="paint5_linear_324_142" x1="21.6785" y1="15.4705" x2="20.0852" y2="15.4705" gradientUnits="userSpaceOnUse">
<stop stop-color="#BE3F45" stop-opacity="0"/>
<stop offset="1" stop-color="#BE3F45"/>
</linearGradient>
<linearGradient id="paint6_linear_324_142" x1="7.42761" y1="13.8347" x2="15.5333" y2="17.5738" gradientUnits="userSpaceOnUse">
<stop stop-color="#FFB92D"/>
<stop offset="1" stop-color="#F59500"/>
</linearGradient>
<linearGradient id="paint7_linear_324_142" x1="10.4359" y1="22.1598" x2="10.1009" y2="24.7207" gradientUnits="userSpaceOnUse">
<stop stop-color="#BE3F45" stop-opacity="0"/>
<stop offset="1" stop-color="#BE3F45"/>
</linearGradient>
<linearGradient id="paint8_linear_324_142" x1="2.10214" y1="6.98128" x2="2.10214" y2="23.3579" gradientUnits="userSpaceOnUse">
<stop stop-color="#FFF465"/>
<stop offset="1" stop-color="#FFE600"/>
</linearGradient>
<linearGradient id="paint9_linear_324_142" x1="11.5165" y1="6.9817" x2="11.5165" y2="23.3239" gradientUnits="userSpaceOnUse">
<stop stop-color="#FFF465"/>
<stop offset="1" stop-color="#FFE600"/>
</linearGradient>
<linearGradient id="paint10_linear_324_142" x1="2.88078" y1="6.98089" x2="2.88078" y2="23.357" gradientUnits="userSpaceOnUse">
<stop stop-color="#FFF465"/>
<stop offset="1" stop-color="#FFE600"/>
</linearGradient>
<linearGradient id="paint11_linear_324_142" x1="19.1027" y1="18.792" x2="14.2539" y2="13.9432" gradientUnits="userSpaceOnUse">
<stop stop-color="#BE3F45" stop-opacity="0"/>
<stop offset="1" stop-color="#BE3F45"/>
</linearGradient>
<linearGradient id="paint12_linear_324_142" x1="16.7934" y1="15.3963" x2="16.7934" y2="17.8984" gradientUnits="userSpaceOnUse">
<stop stop-color="#FF4C54"/>
<stop offset="1" stop-color="#BE3F45"/>
</linearGradient>
<linearGradient id="paint13_linear_324_142" x1="16.7933" y1="17.232" x2="16.7933" y2="15.5055" gradientUnits="userSpaceOnUse">
<stop stop-color="#FF4C54"/>
<stop offset="1" stop-color="#BE3F45"/>
</linearGradient>
<linearGradient id="paint14_linear_324_142" x1="13.9977" y1="5.68684" x2="14.4918" y2="7.86891" gradientUnits="userSpaceOnUse">
<stop stop-color="#A7F3CE"/>
<stop offset="1" stop-color="#61DB99"/>
</linearGradient>
<linearGradient id="paint15_linear_324_142" x1="14.9049" y1="5.68694" x2="15.399" y2="7.86901" gradientUnits="userSpaceOnUse">
<stop stop-color="#A7F3CE"/>
<stop offset="1" stop-color="#61DB99"/>
</linearGradient>
<linearGradient id="paint16_linear_324_142" x1="13.8022" y1="5.73107" x2="14.2963" y2="7.91314" gradientUnits="userSpaceOnUse">
<stop stop-color="#A7F3CE"/>
<stop offset="1" stop-color="#61DB99"/>
</linearGradient>
<linearGradient id="paint17_linear_324_142" x1="14.7094" y1="5.73117" x2="15.2035" y2="7.91324" gradientUnits="userSpaceOnUse">
<stop stop-color="#A7F3CE"/>
<stop offset="1" stop-color="#61DB99"/>
</linearGradient>
<clipPath id="clip0_324_142">
<rect width="24" height="24" fill="white" transform="translate(0 0.5)"/>
</clipPath>
</defs>
</svg>
