<svg width="4" height="18" viewBox="0 0 4 18" fill="none" xmlns="http://www.w3.org/2000/svg">
<path d="M1 9.25C1 9.51522 1.10536 9.76957 1.29289 9.95711C1.48043 10.1446 1.73478 10.25 2 10.25C2.26522 10.25 2.51957 10.1446 2.70711 9.95711C2.89464 9.76957 3 9.51522 3 9.25C3 8.98478 2.89464 8.73043 2.70711 8.54289C2.51957 8.35536 2.26522 8.25 2 8.25C1.73478 8.25 1.48043 8.35536 1.29289 8.54289C1.10536 8.73043 1 8.98478 1 9.25Z" stroke="#080808" stroke-opacity="0.7" stroke-width="1.5" stroke-linecap="round" stroke-linejoin="round"/>
<path d="M1 16.25C1 16.5152 1.10536 16.7696 1.29289 16.9571C1.48043 17.1446 1.73478 17.25 2 17.25C2.26522 17.25 2.51957 17.1446 2.70711 16.9571C2.89464 16.7696 3 16.5152 3 16.25C3 15.9848 2.89464 15.7304 2.70711 15.5429C2.51957 15.3554 2.26522 15.25 2 15.25C1.73478 15.25 1.48043 15.3554 1.29289 15.5429C1.10536 15.7304 1 15.9848 1 16.25Z" stroke="#080808" stroke-opacity="0.7" stroke-width="1.5" stroke-linecap="round" stroke-linejoin="round"/>
<path d="M1 2.25C1 2.51522 1.10536 2.76957 1.29289 2.95711C1.48043 3.14464 1.73478 3.25 2 3.25C2.26522 3.25 2.51957 3.14464 2.70711 2.95711C2.89464 2.76957 3 2.51522 3 2.25C3 1.98478 2.89464 1.73043 2.70711 1.54289C2.51957 1.35536 2.26522 1.25 2 1.25C1.73478 1.25 1.48043 1.35536 1.29289 1.54289C1.10536 1.73043 1 1.98478 1 2.25Z" stroke="#080808" stroke-opacity="0.7" stroke-width="1.5" stroke-linecap="round" stroke-linejoin="round"/>
</svg>
