<svg width="25" height="25" viewBox="0 0 25 25" fill="none" xmlns="http://www.w3.org/2000/svg">
<g clip-path="url(#clip0_324_165)">
<path d="M17.5504 24.3108L22.0888 20.1192C22.392 19.8392 22.392 19.3602 22.0888 19.0802L17.5504 14.8885C17.0974 14.4702 16.3633 14.7915 16.3633 15.4081V17.1932H9.5702C9.25098 17.1932 8.99219 17.452 8.99219 17.7713V21.428C8.99219 21.7472 9.25098 22.006 9.5702 22.006H16.3633V23.7912C16.3633 24.4079 17.0974 24.7292 17.5504 24.3108Z" fill="#48ACFF"/>
<path d="M22.0886 20.1195L17.5502 24.3111C17.0973 24.7292 16.3633 24.4081 16.3633 23.7912V22.8987C18.5312 22.5584 20.1892 20.682 20.1892 18.4184C20.1892 17.983 20.1278 17.562 20.0134 17.1636L22.0886 19.0803C22.3919 19.3601 22.3919 19.8392 22.0886 20.1195Z" fill="#229BFF"/>
<path d="M22.0886 20.1194L21.8341 20.3543H8.99219V17.7715C8.99219 17.4522 9.25094 17.193 9.57016 17.193H16.3633V15.408C16.3633 14.7916 17.0973 14.47 17.5502 14.8886L22.0886 19.0802C22.3919 19.36 22.3919 19.8391 22.0886 20.1194Z" fill="#229BFF"/>
<path d="M7.44947 10.1114L2.91098 5.91977C2.6078 5.63974 2.6078 5.16072 2.91098 4.88069L7.44942 0.68908C7.90242 0.270721 8.63648 0.592002 8.63648 1.2086V2.99378H15.4296C15.7488 2.99378 16.0076 3.25258 16.0076 3.5718V7.22856C16.0076 7.54778 15.7488 7.80658 15.4296 7.80658H8.63648V9.59177C8.63653 10.2085 7.90247 10.5297 7.44947 10.1114Z" fill="#FF4881"/>
<path d="M16.0071 5.55678V3.57162C16.0071 3.2524 15.7484 2.99365 15.4291 2.99365H15.0218C15.0218 3.93162 14.2695 5.20011 12.6387 5.55678H16.0071Z" fill="#FE255F"/>
<path d="M12.6774 2.9939H8.58937C8.13333 2.9939 7.76367 3.3636 7.76367 3.8196C7.76367 4.27565 8.13337 4.6453 8.58937 4.6453H12.6774C13.1335 4.6453 13.5031 4.2756 13.5031 3.8196C13.5031 3.3636 13.1335 2.9939 12.6774 2.9939Z" fill="#FC709B"/>
<path d="M10.8655 2.9939H10.0366C9.58059 2.9939 9.21094 3.3636 9.21094 3.8196C9.21094 4.27565 9.58064 4.6453 10.0366 4.6453H10.8655C11.3215 4.6453 11.6912 4.2756 11.6912 3.8196C11.6912 3.3636 11.3215 2.9939 10.8655 2.9939Z" fill="#F7A6C1"/>
<path d="M23.0937 19.4431H1.90625C1.12958 19.4431 0.5 18.8136 0.5 18.0369V6.96289C0.5 6.18622 1.12958 5.55664 1.90625 5.55664H23.0937C23.8704 5.55664 24.5 6.18622 24.5 6.96289V18.0369C24.5 18.8135 23.8703 19.4431 23.0937 19.4431Z" fill="#29E088"/>
<path d="M24.4996 6.96314V18.0369C24.4996 18.8136 23.8701 19.4431 23.0934 19.4431H11.6348C17.0999 18.4583 21.2455 13.678 21.2455 7.9297C21.2455 7.11688 21.1626 6.32329 21.0046 5.55688H23.0934C23.8701 5.55688 24.4996 6.18642 24.4996 6.96314Z" fill="#0CC166"/>
<path d="M24.4996 14.2231V18.0369C24.4996 18.8136 23.8701 19.4431 23.0934 19.4431H17.6465C20.675 18.897 23.204 16.9128 24.4996 14.2231Z" fill="#04A550"/>
<path d="M22.8594 7.66626V16.865C22.8594 17.383 22.4398 17.8025 21.9219 17.8025H2.60938C2.35063 17.8025 2.14062 17.593 2.14062 17.3338V8.13501C2.14062 7.61704 2.56016 7.19751 3.07812 7.19751H22.3906C22.6494 7.19751 22.8594 7.40704 22.8594 7.66626Z" fill="#0CC166"/>
<path d="M22.8593 7.66626V16.865C22.8593 17.383 22.4398 17.8025 21.9218 17.8025H15.8262C19.0849 15.7255 21.2459 12.08 21.2459 7.9297C21.2459 7.6836 21.2384 7.43938 21.2234 7.19751H22.3905C22.6493 7.19751 22.8593 7.40704 22.8593 7.66626Z" fill="#04A550"/>
<path d="M12.4996 17.0703C14.7527 17.0703 16.5793 15.0241 16.5793 12.5C16.5793 9.97589 14.7527 7.92969 12.4996 7.92969C10.2465 7.92969 8.41992 9.97589 8.41992 12.5C8.41992 15.0241 10.2465 17.0703 12.4996 17.0703Z" fill="#04A550"/>
<path d="M16.5793 12.5C16.5793 15.0243 14.753 17.0704 12.4997 17.0704C11.1572 17.0704 9.9666 16.3443 9.22363 15.2235C9.7702 15.4602 10.373 15.591 11.0063 15.591C13.4897 15.591 15.503 13.5777 15.503 11.0943C15.503 10.2435 15.2668 9.44755 14.8557 8.7688C15.8986 9.59614 16.5793 10.9593 16.5793 12.5Z" fill="#00893E"/>
<path d="M13.7431 12.4464L11.8121 11.4631C11.7799 11.4466 11.7599 11.414 11.7599 11.3779C11.7599 11.3251 11.8027 11.2823 11.8555 11.2823H13.1444C13.1972 11.2823 13.2401 11.3251 13.2401 11.3779C13.2401 11.7158 13.514 11.9897 13.8519 11.9897C14.1899 11.9897 14.4638 11.7158 14.4638 11.3779C14.4638 10.6504 13.8719 10.0585 13.1444 10.0585H13.1118V9.91655C13.1118 9.57863 12.8379 9.30469 12.5 9.30469C12.162 9.30469 11.8881 9.57863 11.8881 9.91655V10.0585H11.8555C11.128 10.0585 10.5361 10.6504 10.5361 11.3779C10.5361 11.8767 10.8123 12.3273 11.2568 12.5536L13.1879 13.5369C13.2201 13.5534 13.2401 13.586 13.2401 13.6222C13.2401 13.6749 13.1972 13.7178 13.1445 13.7178H11.8555C11.8028 13.7178 11.7599 13.6749 11.7599 13.6222C11.7599 13.2842 11.486 13.0103 11.148 13.0103C10.8101 13.0103 10.5362 13.2842 10.5362 13.6222C10.5362 14.3497 11.1281 14.9416 11.8556 14.9416H11.8881V15.0835C11.8881 15.4214 12.1621 15.6953 12.5 15.6953C12.8379 15.6953 13.1119 15.4214 13.1119 15.0835V14.9416H13.1444C13.8719 14.9416 14.4638 14.3497 14.4638 13.6222C14.4639 13.1233 14.1877 12.6728 13.7431 12.4464Z" fill="#29E088"/>
<path d="M13.1979 12.1685L12.3574 11.7406C12.0563 11.5872 11.6878 11.7071 11.5345 12.0082C11.3812 12.3093 11.501 12.6777 11.8021 12.8311L12.6426 13.259C12.9438 13.4124 13.3122 13.2926 13.4655 12.9914C13.6189 12.6903 13.499 12.3219 13.1979 12.1685Z" fill="#79FF79"/>
<path d="M3.83047 9.82466H2.14062V8.13477C2.14062 7.61698 2.56034 7.19727 3.07813 7.19727H4.76802V8.88716C4.76797 9.40494 4.34825 9.82466 3.83047 9.82466Z" fill="#79FF79"/>
<path d="M22.8598 15.175V16.8649C22.8598 17.3829 22.4402 17.8024 21.9223 17.8024H20.2324V16.1125C20.2324 15.595 20.652 15.175 21.1699 15.175H22.8598Z" fill="#79FF79"/>
<path d="M21.3013 9.46387H17.9141C17.5904 9.46387 17.3281 9.20155 17.3281 8.87793C17.3281 8.5543 17.5904 8.29199 17.9141 8.29199H21.3013C21.6249 8.29199 21.8872 8.5543 21.8872 8.87793C21.8872 9.20155 21.6249 9.46387 21.3013 9.46387Z" fill="#00893E"/>
<path d="M19.8453 8.29199H18.7734C18.4498 8.29199 18.1875 8.5543 18.1875 8.87793C18.1875 9.20155 18.4498 9.46387 18.7734 9.46387H19.8453C20.1689 9.46387 20.4312 9.20155 20.4312 8.87793C20.4312 8.55435 20.1689 8.29199 19.8453 8.29199Z" fill="#04A550"/>
<path d="M7.08548 16.708H3.69824C3.37462 16.708 3.1123 16.4457 3.1123 16.1221C3.1123 15.7984 3.37462 15.5361 3.69824 15.5361H7.08548C7.4091 15.5361 7.67141 15.7984 7.67141 16.1221C7.67141 16.4456 7.40906 16.708 7.08548 16.708Z" fill="#00893E"/>
<path d="M5.60901 15.5361H4.43652C4.1129 15.5361 3.85059 15.7984 3.85059 16.1221C3.85059 16.4457 4.1129 16.708 4.43652 16.708H5.60901C5.93263 16.708 6.19495 16.4457 6.19495 16.1221C6.19495 15.7984 5.93263 15.5361 5.60901 15.5361Z" fill="#04A550"/>
<path d="M15.4873 10.0078C15.8756 10.0078 16.1904 9.69301 16.1904 9.30469C16.1904 8.91636 15.8756 8.60156 15.4873 8.60156C15.099 8.60156 14.7842 8.91636 14.7842 9.30469C14.7842 9.69301 15.099 10.0078 15.4873 10.0078Z" fill="#79FF79"/>
<path d="M15.4873 16.3984C15.8756 16.3984 16.1904 16.0836 16.1904 15.6953C16.1904 15.307 15.8756 14.9922 15.4873 14.9922C15.099 14.9922 14.7842 15.307 14.7842 15.6953C14.7842 16.0836 15.099 16.3984 15.4873 16.3984Z" fill="#79FF79"/>
<path d="M9.5127 10.0078C9.90102 10.0078 10.2158 9.69301 10.2158 9.30469C10.2158 8.91636 9.90102 8.60156 9.5127 8.60156C9.12437 8.60156 8.80957 8.91636 8.80957 9.30469C8.80957 9.69301 9.12437 10.0078 9.5127 10.0078Z" fill="#79FF79"/>
<path d="M9.5127 16.3984C9.90102 16.3984 10.2158 16.0836 10.2158 15.6953C10.2158 15.307 9.90102 14.9922 9.5127 14.9922C9.12437 14.9922 8.80957 15.307 8.80957 15.6953C8.80957 16.0836 9.12437 16.3984 9.5127 16.3984Z" fill="#79FF79"/>
<path d="M16.6455 13.2031C17.0338 13.2031 17.3486 12.8883 17.3486 12.5C17.3486 12.1117 17.0338 11.7969 16.6455 11.7969C16.2572 11.7969 15.9424 12.1117 15.9424 12.5C15.9424 12.8883 16.2572 13.2031 16.6455 13.2031Z" fill="#29E088"/>
<path d="M8.35449 13.2031C8.74282 13.2031 9.05762 12.8883 9.05762 12.5C9.05762 12.1117 8.74282 11.7969 8.35449 11.7969C7.96617 11.7969 7.65137 12.1117 7.65137 12.5C7.65137 12.8883 7.96617 13.2031 8.35449 13.2031Z" fill="#29E088"/>
<path d="M14.7043 5.55688H6.56348C6.11043 5.55688 5.74316 5.92415 5.74316 6.3772C5.74316 6.83024 6.11043 7.19751 6.56348 7.19751H14.7043C15.1574 7.19751 15.5246 6.83024 15.5246 6.3772C15.5246 5.92415 15.1573 5.55688 14.7043 5.55688Z" fill="#79FF79"/>
<path d="M12.0254 5.55688H8.79102C8.33797 5.55688 7.9707 5.92415 7.9707 6.3772C7.9707 6.83024 8.33797 7.19751 8.79102 7.19751H12.0254C12.4784 7.19751 12.8457 6.83024 12.8457 6.3772C12.8457 5.92415 12.4784 5.55688 12.0254 5.55688Z" fill="#C2FFC2"/>
<path d="M2.14062 16.4308V12.3181C2.14062 11.8651 1.77336 11.4978 1.32031 11.4978C0.867266 11.4978 0.5 11.8651 0.5 12.3181V16.4308C0.5 16.8839 0.867266 17.2511 1.32031 17.2511C1.77336 17.2511 2.14062 16.8839 2.14062 16.4308Z" fill="#79FF79"/>
<path d="M0.5 13.6311V14.2103C0.5 14.6633 0.867266 15.0306 1.32031 15.0306C1.77336 15.0306 2.14062 14.6633 2.14062 14.2103V13.6311C2.14062 13.1781 1.77336 12.8108 1.32031 12.8108C0.867266 12.8108 0.5 13.1781 0.5 13.6311Z" fill="#C2FFC2"/>
<path d="M14.571 20.3542H10.8579C10.4019 20.3542 10.0322 20.724 10.0322 21.18C10.0322 21.636 10.4019 22.0057 10.8579 22.0057H14.571C15.027 22.0057 15.3967 21.636 15.3967 21.18C15.3967 20.7239 15.027 20.3542 14.571 20.3542Z" fill="#7CBAF7"/>
<path d="M12.844 20.3542H12.0152C11.5591 20.3542 11.1895 20.724 11.1895 21.18C11.1895 21.636 11.5592 22.0057 12.0152 22.0057H12.844C13.3 22.0057 13.6697 21.636 13.6697 21.18C13.6697 20.7239 13.3 20.3542 12.844 20.3542Z" fill="#A9CFFC"/>
<path d="M22.8594 16.6091V16.8651C22.8594 17.383 22.4399 17.8026 21.9219 17.8026H21.501C21.9913 17.4487 22.4459 17.0484 22.8594 16.6091Z" fill="#0CC166"/>
</g>
<defs>
<clipPath id="clip0_324_165">
<rect width="24" height="24" fill="white" transform="translate(0.5 0.5)"/>
</clipPath>
</defs>
</svg>
