<svg width="25" height="24" viewBox="0 0 25 24" fill="none" xmlns="http://www.w3.org/2000/svg">
<g clip-path="url(#clip0_324_74)">
<path d="M24.5004 19.2369L16.9047 14.4507V16.5269H12.5004L12 19.0419L12.5004 21.9468H16.9047V24.0231L24.5004 19.2369Z" fill="#0BD5DD"/>
<path d="M10.8778 16.527L6.33789 12.113V17.2308C6.33789 19.8313 8.45349 21.9469 11.054 21.9469H12.5001V16.527H10.8778Z" fill="#00E5EE"/>
<path d="M13.9462 2.12305H12.5001L11.499 4.52759L12.5001 7.54297H14.1224L18.6623 11.9569V6.83911C18.6623 4.23865 16.5467 2.12305 13.9462 2.12305Z" fill="#0DD141"/>
<path d="M8.09595 2.12311V0.046875L0.5 4.83307L8.09595 9.61908V7.54303H12.5V2.12311H8.09595Z" fill="#52E161"/>
<path d="M12.5004 5.88037L12 12.1834L12.5004 18.1895C15.8994 18.1895 18.655 15.4339 18.655 12.0349C18.655 8.63593 15.8994 5.88037 12.5004 5.88037Z" fill="#FC7419"/>
<path d="M6.3457 12.0349C6.3457 15.4339 9.10107 18.1895 12.5001 18.1895V5.88037C9.10107 5.88037 6.3457 8.63593 6.3457 12.0349Z" fill="#FDA102"/>
<path d="M12.5004 5.17651L12 5.67712L12.5004 6.58423C15.5059 6.58423 17.9511 9.02942 17.9511 12.0349C17.9511 15.0404 15.5059 17.4856 12.5004 17.4856L12 18.1895L12.5004 18.8931C16.2821 18.8931 19.3586 15.8166 19.3586 12.0349C19.3586 8.25323 16.2821 5.17651 12.5004 5.17651Z" fill="#FDAE02"/>
<path d="M7.04913 12.0349C7.04913 9.02942 9.49432 6.58423 12.4998 6.58423V5.17651C8.71814 5.17651 5.6416 8.25323 5.6416 12.0349C5.6416 15.8166 8.71814 18.8931 12.4998 18.8931V17.4856C9.49432 17.4856 7.04913 15.0404 7.04913 12.0349Z" fill="#FDCB02"/>
<path d="M12.6504 10.6036C13.1199 10.6036 13.6201 10.7345 14.1509 11.0038L14.6973 9.68787C14.2588 9.44159 13.7047 9.29547 13.1353 9.24164V8.41821H12.5004L12 10.1815L12.5004 10.6087C12.5471 10.6056 12.5966 10.6036 12.6504 10.6036Z" fill="#FDD535"/>
<path d="M12.5004 11.2832L12 12.1833L12.5004 12.7946C12.8712 12.879 13.1353 12.9722 13.1353 13.1738C13.1353 13.3503 12.9657 13.4563 12.5004 13.4653L12 14.1854L12.5004 15.6516H13.1353V14.7974C14.328 14.5897 14.9282 13.8663 14.9282 13.0352C14.9282 11.5948 13.361 11.483 12.5004 11.2832Z" fill="#FDD535"/>
<path d="M12.4347 13.4662C11.8422 13.4662 11.165 13.2737 10.6571 12.9736L10.0723 14.2971C10.5341 14.5818 11.2804 14.7897 12.05 14.8358V15.6516H12.5001V13.4653C12.4786 13.4656 12.4574 13.4662 12.4347 13.4662Z" fill="#FEEA9A"/>
<path d="M12.0504 9.25702C10.7882 9.4339 10.1572 10.165 10.1572 11.0346C10.1572 12.4451 11.6259 12.5954 12.5004 12.7946V11.2833C12.1749 11.2078 11.9502 11.1196 11.9502 10.9421C11.9502 10.7762 12.0879 10.6356 12.5004 10.6087V8.41821H12.0504V9.25702Z" fill="#FEEA9A"/>
</g>
<defs>
<clipPath id="clip0_324_74">
<rect width="24" height="24" fill="white" transform="translate(0.5)"/>
</clipPath>
</defs>
</svg>
